{"title":"Ava Addams And Friends XXX (2014)***[*NEW*]*** 19 SEPT. 2014","uid":11057485,"size":3320829309,"categoryP":"porn","categoryS":"movies","magnet":"?xt=urn:btih:7e8ad84479aad61eb21a817b3f2a257e718bcd41&amp;dn=Ava+Addams+And+Friends+XXX+%282014%29%2A%2A%2A%5B%2ANEW%2A%5D%2A%2A%2A+19+SEPT.+2014&amp;tr=udp%3A%2F%2Ftracker.openbittorrent.com%3A80&amp;tr=udp%3A%2F%2Fopen.demonii.com%3A1337&amp;tr=udp%3A%2F%2Ftracker.coppersurfer.tk%3A6969&amp;tr=udp%3A%2F%2Fexodus.desync.com%3A6969","seeders":0,"leechers":0,"uploader":"iH2OSO4","files":-1,"time":1411133353,"description":"Ava.Addams.And.Friends.DiSC1andDiSC2.XXX.DVDRiP-ViK\n\nThe seductive Ava Addams and her horny friends are here, and they're ready to fuck! Get ready for over 6 hours of Ava Addams, McKenzie Lee, Bailey Brooks, Austin Taylor, Sienna West, Tanya Tate, and more dick hungry friends as they ride cock all night long. Let the cum fly, because Ava Addams and friends are here!\n\nSOURCE :  &lt;a href=&quot; http://nuscotower.com/i/ava_cgfbn655.html&quot; rel=&quot;nofollow&quot; target=&quot;_NEW&quot;&gt; http://nuscotower.com/i/ava_cgfbn655.html&lt;/a&gt;\n\nGeneral\nAva.Addams.And.Friends.DiSC1andDiSC2.XXX.DVDRiP-ViK(1).mp4\nFormat                           : MPEG-4\nFormat profile                   : Base Media\nCodec ID                         : isom\nFile size                        : 1.54 GiB\nDuration                         : 2h 58mn\nOverall bit rate                 : 1 240 Kbps\n\n\nVideo\nID                               : 1\nFormat                           : AVC\nFormat/Info                      : Advanced Video Codec\nFormat profile                   : &lt;a class=&quot;__cf_email__&quot; href=&quot;/cdn-cgi/l/email-protection&quot; data-cfemail=&quot;c880a1afa08884fbe6f9&quot;&gt;[email&amp;#160;protected]&lt;/a&gt;&lt;script data-cfhash='f9e31' type=&quot;text/javascript&quot;&gt;\n/* &lt;![CDATA[ */!function(){try{var t=&quot;currentScript&quot;in document?document.currentScript:function(){for(var t=document.getElementsByTagName(&quot;script&quot;),e=t.length;e--;)if(t[e].getAttribute(&quot;data-cfhash&quot;))return t[e]}();if(t&amp;&amp;t.previousSibling){var e,r,n,i,c=t.previousSibling,a=c.getAttribute(&quot;data-cfemail&quot;);if(a){for(e=&quot;&quot;,r=parseInt(a.substr(0,2),16),n=2;a.length-n;n+=2)i=parseInt(a.substr(n,2),16)^r,e+=String.fromCharCode(i);e=document.createTextNode(e),c.parentNode.replaceChild(e,c)}t.parentNode.removeChild(t);}}catch(u){}}()/* ]]&gt; */&lt;/script&gt;\nFormat settings, CABAC           : Yes\nFormat settings, ReFrames        : 5 frames\nCodec ID                         : avc1\nCodec ID/Info                    : Advanced Video Coding\nDuration                         : 2h 58mn\nBit rate mode                    : Variable\nBit rate                         : 1 112 Kbps\nMaximum bit rate                 : 2 472 Kbps\nWidth                            : 704 pixels\nHeight                           : 386 pixels\nDisplay aspect ratio             : 16:9\nFrame rate mode                  : Constant\nFrame rate                       : 29.970 fps\nColor space                      : YUV\nChroma subsampling               : 4:2:0\nBit depth                        : 8 bits\nScan type                        : Progressive\nBits/(Pixel*Frame)               : 0.137\nStream size                      : 1.38 GiB (90%)\nTitle                            : a1.h264\nWriting library                  : x264 core 142 r2479 dd79a61\n\nAudio\nID                               : 2\nFormat                           : AAC\nFormat/Info                      : Advanced Audio Codec\nFormat profile                   : LC\nCodec ID                         : 40\nDuration                         : 2h 58mn\nBit rate mode                    : Variable\nBit rate                         : 123 Kbps\nMaximum bit rate                 : 150 Kbps\nChannel(s)                       : 2 channels\nChannel positions                : Front: L R\nSampling rate                    : 48.0 KHz\nCompression mode                 : Lossy\nStream size                      : 157 MiB (10%)\nTitle                            : VTS_01_1 T80 2_0ch 192Kbps DELAY 0ms_Output.m4a\nEncoded date                     : UTC 2014-09-14 06:13:34\nTagged date                      : UTC 2014-09-14 06:13:37\n\n/*/*/*/*/*/*/*/*/*/*/*/*/*/*/*/*/*/\n\nGeneral\nAva.Addams.And.Friends.DiSC1andDiSC2.XXX.DVDRiP-ViK (2).mp4\nFormat                           : MPEG-4\nFormat profile                   : Base Media\nCodec ID                         : isom\nFile size                        : 1.55 GiB\nDuration                         : 3h 2mn\nOverall bit rate                 : 1 218 Kbps\n\nVideo\nID                               : 1\nFormat                           : AVC\nFormat/Info                      : Advanced Video Codec\nFormat profile                   : &lt;a class=&quot;__cf_email__&quot; href=&quot;/cdn-cgi/l/email-protection&quot; data-cfemail=&quot;773f1e101f373b445946&quot;&gt;[email&amp;#160;protected]&lt;/a&gt;&lt;script data-cfhash='f9e31' type=&quot;text/javascript&quot;&gt;\n/* &lt;![CDATA[ */!function(){try{var t=&quot;currentScript&quot;in document?document.currentScript:function(){for(var t=document.getElementsByTagName(&quot;script&quot;),e=t.length;e--;)if(t[e].getAttribute(&quot;data-cfhash&quot;))return t[e]}();if(t&amp;&amp;t.previousSibling){var e,r,n,i,c=t.previousSibling,a=c.getAttribute(&quot;data-cfemail&quot;);if(a){for(e=&quot;&quot;,r=parseInt(a.substr(0,2),16),n=2;a.length-n;n+=2)i=parseInt(a.substr(n,2),16)^r,e+=String.fromCharCode(i);e=document.createTextNode(e),c.parentNode.replaceChild(e,c)}t.parentNode.removeChild(t);}}catch(u){}}()/* ]]&gt; */&lt;/script&gt;\nFormat settings, CABAC           : Yes\nFormat settings, ReFrames        : 5 frames\nCodec ID                         : avc1\nCodec ID/Info                    : Advanced Video Coding\nDuration                         : 3h 2mn\nBit rate mode                    : Variable\nBit rate                         : 1 085 Kbps\nWidth                            : 704 pixels\nHeight                           : 386 pixels\nDisplay aspect ratio             : 16:9\nFrame rate mode                  : Constant\nFrame rate                       : 29.970 fps\nColor space                      : YUV\nChroma subsampling               : 4:2:0\nBit depth                        : 8 bits\nScan type                        : Progressive\nBits/(Pixel*Frame)               : 0.133\nStream size                      : 1.38 GiB (89%)\nWriting library                  : x264 core 142 r2479 dd79a61\n\nAudio\nID                               : 2\nFormat                           : AAC\nFormat/Info                      : Advanced Audio Codec\nFormat profile                   : LC\nCodec ID                         : 40\nDuration                         : 3h 2mn\nBit rate mode                    : Constant\nBit rate                         : 124 Kbps\nChannel(s)                       : 2 channels\nChannel positions                : Front: L R\nSampling rate                    : 48.0 KHz\nCompression mode                 : Lossy\nStream size                      : 162 MiB (10%)\n\n","torrent":{"xt":"urn:btih:7e8ad84479aad61eb21a817b3f2a257e718bcd41","amp;dn":"Ava+Addams+And+Friends+XXX+%282014%29%2A%2A%2A%5B%2ANEW%2A%5D%2A%2A%2A+19+SEPT.+2014","amp;tr":["udp%3A%2F%2Ftracker.openbittorrent.com%3A80","udp%3A%2F%2Fopen.demonii.com%3A1337","udp%3A%2F%2Ftracker.coppersurfer.tk%3A6969","udp%3A%2F%2Fexodus.desync.com%3A6969"],"infoHash":"7e8ad84479aad61eb21a817b3f2a257e718bcd41","infoHashBuffer":{"type":"Buffer","data":[126,138,216,68,121,170,214,30,178,26,129,123,63,42,37,126,113,139,205,65]},"announce":[],"urlList":[]}}